<svg xmlns="http://www.w3.org/2000/svg" version="1.1" xmlns:xlink="http://www.w3.org/1999/xlink" xmlns:svgjs="http://svgjs.com/svgjs" width="27.827" height="31.201"><svg xmlns="http://www.w3.org/2000/svg" width="27.827" height="31.201" viewBox="0 0 27.827 31.201">
  <path id="SvgjsPath1000" d="M23.166.969C20.028-.05,17.3,1.43,15.671,2.314c-.14.076-.271.147-.395.212a.621.621,0,0,1-.666-.054C13.031,1.275,11.19,0,9.329,0A8.9,8.9,0,0,0,4.263,1.553,9.034,9.034,0,0,0,2.36,3.32a.851.851,0,0,1-.112.164,9.25,9.25,0,0,0,.28,11.695.592.592,0,0,1,.046.061c.044.066.1.144.155.221s.119.167.168.24a13.8,13.8,0,0,1,2.1,5.029c.145.725.291,1.5.389,2.338a21.135,21.135,0,0,0,1.332,5.719s0,.021,0,.023C7.34,30.3,8.084,31.122,8.93,31.2h.162c.348,0,1.093-.456,2.173-3.41,0,0,0-.017.005-.022l1.192-3.037a2.1,2.1,0,0,1,1.964-1.341h.039A2.094,2.094,0,0,1,16.419,24.8l1.053,3c.913,2.5,1.72,3.4,2.171,3.4H19.8c.589-.078,1.443-.544,2.212-2.39a23.243,23.243,0,0,0,1.336-5.74c.1-.831.244-1.613.387-2.33a13.8,13.8,0,0,1,2.109-5.051,11.04,11.04,0,0,0,1.806-9.848A7.055,7.055,0,0,0,23.166.969Zm0,0" transform="translate(-0.302 0.001)" fill="#024232"></path>
</svg><style>@media (prefers-color-scheme: light) { :root { filter: none; } }
@media (prefers-color-scheme: dark) { :root { filter: contrast(0.625) brightness(2.5); } }
</style></svg>