<svg xmlns="http://www.w3.org/2000/svg" width="787.71" height="608.228" viewBox="0 0 787.71 608.228">
  <path id="blob" d="M482.266-25.272c50.145,27.825,88.217,68.1,128.147,111.3s82.182,89.334,91.468,139.126c9.286,50.159-14.858,104.345-47.823,157.432-32.965,52.722-74.753,103.979-134.648,126.678C459.979,531.6,382.905,525.375,309.081,520.25c-73.824-4.76-143.934-8.421-209.865-28.191s-127.683-55.284-157.4-102.88c-30.18-47.962-28.322-108.006-21.358-165.121,6.5-56.749,18.108-110.569,45.5-162.558C-7.109,9.876,35.142-39.917,94.573-63.715c58.966-24.164,135.112-21.967,204.293-13.547C368.512-68.475,431.657-53.1,482.266-25.272Z" transform="translate(83.822 83.093)" fill="#91e9d3"/>
</svg>
