<svg xmlns="http://www.w3.org/2000/svg" width="127.48" height="31.201" viewBox="0 0 127.48 31.201">
  <g id="logo" transform="translate(-64.173 -47.203)">
    <path id="Trazado_43" data-name="Trazado 43" d="M21.141-10.408a11.2,11.2,0,0,1-1.3,5.459,8.929,8.929,0,0,1-3.7,3.66A11.582,11.582,0,0,1,10.592,0H2V-20.306h8.411Q21.141-20.306,21.141-10.408Zm-6.5.057a5.844,5.844,0,0,0-.6-2.676,4.354,4.354,0,0,0-1.72-1.841,5.141,5.141,0,0,0-2.634-.651H8.114V-4.786H9.827a4.409,4.409,0,0,0,3.5-1.508A5.972,5.972,0,0,0,14.642-10.351Zm14,4.814a2.038,2.038,0,0,0,1.076,1.466,4.853,4.853,0,0,0,2.436.531,10.03,10.03,0,0,0,3.993-.807V-.524a14.352,14.352,0,0,1-5.324.878,8.4,8.4,0,0,1-5.9-1.94,6.891,6.891,0,0,1-2.11-5.338,8.808,8.808,0,0,1,.927-4.121,6.674,6.674,0,0,1,2.747-2.8A8.116,8.116,0,0,1,30.5-14.854a7.9,7.9,0,0,1,3.852.878,5.848,5.848,0,0,1,2.428,2.464,7.9,7.9,0,0,1,.828,3.71v2.266Zm3.625-3.158q0-2.506-1.8-2.506a1.522,1.522,0,0,0-1.26.687,3.427,3.427,0,0,0-.595,1.82ZM49.093,0V-7.916a3.519,3.519,0,0,0-.4-1.933,1.475,1.475,0,0,0-1.31-.588,1.417,1.417,0,0,0-1.218.609,2.6,2.6,0,0,0-.439,1.558V0H39.691V-14.5h6.032v2.266h.057a5.119,5.119,0,0,1,1.94-1.933,5.3,5.3,0,0,1,2.648-.687q4.758,0,4.758,6V0Zm18.96-.2a5.877,5.877,0,0,1-1.345.375,12.3,12.3,0,0,1-2.251.177,5.409,5.409,0,0,1-3.944-1.388A5.267,5.267,0,0,1,59.09-4.984v-5.338h-2.28V-14.5h2.28v-2.846l5.947-1.643V-14.5h3.016v4.177H65.038v4.347q0,1.912,1.515,1.912a4.11,4.11,0,0,0,1.5-.312Zm8.27-18.21a2.591,2.591,0,0,1-.927,2.067,3.629,3.629,0,0,1-2.443.793,3.54,3.54,0,0,1-2.414-.821,2.6,2.6,0,0,1-.942-2.039,2.515,2.515,0,0,1,.913-2.018,3.66,3.66,0,0,1,2.443-.772,3.694,3.694,0,0,1,2.443.772A2.5,2.5,0,0,1,76.323-18.408ZM69.937,0V-14.5h6.032V0ZM90.653-4.814A4.429,4.429,0,0,1,88.777-1,8.819,8.819,0,0,1,83.545.354a18.192,18.192,0,0,1-2.414-.2,14.914,14.914,0,0,1-2.344-.481V-4.56A11.539,11.539,0,0,0,83.262-3.37q1.77,0,1.77-.92a.726.726,0,0,0-.411-.63,14.515,14.515,0,0,0-2.152-.828,6.078,6.078,0,0,1-2.8-1.614,3.838,3.838,0,0,1-.878-2.62,4.18,4.18,0,0,1,1.791-3.561,8.4,8.4,0,0,1,5.034-1.31,16,16,0,0,1,4.021.552v4.064a12.162,12.162,0,0,0-1.954-.637A7.893,7.893,0,0,0,85.9-11.13a1.942,1.942,0,0,0-.949.2.61.61,0,0,0-.354.552.77.77,0,0,0,.382.666A6.763,6.763,0,0,0,86.5-9.1,7.1,7.1,0,0,1,89.69-7.434,3.661,3.661,0,0,1,90.653-4.814Z" transform="translate(101 75)" fill="#024232"/>
    <path id="tooth" d="M23.166.969C20.028-.05,17.3,1.43,15.671,2.314c-.14.076-.271.147-.395.212a.621.621,0,0,1-.666-.054C13.031,1.275,11.19,0,9.329,0A8.9,8.9,0,0,0,4.263,1.553,9.034,9.034,0,0,0,2.36,3.32a.851.851,0,0,1-.112.164,9.25,9.25,0,0,0,.28,11.695.592.592,0,0,1,.046.061c.044.066.1.144.155.221s.119.167.168.24a13.8,13.8,0,0,1,2.1,5.029c.145.725.291,1.5.389,2.338a21.135,21.135,0,0,0,1.332,5.719s0,.021,0,.023C7.34,30.3,8.084,31.122,8.93,31.2h.162c.348,0,1.093-.456,2.173-3.41,0,0,0-.017.005-.022l1.192-3.037a2.1,2.1,0,0,1,1.964-1.341h.039A2.094,2.094,0,0,1,16.419,24.8l1.053,3c.913,2.5,1.72,3.4,2.171,3.4H19.8c.589-.078,1.443-.544,2.212-2.39a23.243,23.243,0,0,0,1.336-5.74c.1-.831.244-1.613.387-2.33a13.8,13.8,0,0,1,2.109-5.051,11.04,11.04,0,0,0,1.806-9.848A7.055,7.055,0,0,0,23.166.969Zm0,0" transform="translate(63.871 47.204)" fill="#024232"/>
  </g>
</svg>
