<svg width="0" height="0" class="hidden">
  <symbol xmlns="http://www.w3.org/2000/svg" viewBox="0 0 512 512" id="dental-veneer-1">
    <path d="M178.222 419.991c-13.846-4.779-22.013-19.443-24.882-25.527a8.986 8.986 0 00-8.092-5.13 8.986 8.986 0 00-8.093 5.13l-.001.001c-2.868 6.083-11.035 20.746-24.881 25.525a8.945 8.945 0 000 16.906c13.846 4.779 22.013 19.443 24.882 25.527 1.47 3.116 4.647 5.13 8.093 5.13s6.622-2.014 8.093-5.131c2.868-6.083 11.035-20.746 24.881-25.525a8.945 8.945 0 000-16.906zm-32.975 26.261c-3.874-5.902-9.433-12.67-16.853-17.808 7.42-5.138 12.979-11.906 16.853-17.808 3.875 5.902 9.433 12.67 16.854 17.808-7.42 5.138-12.98 11.906-16.854 17.808zm218.778-286.407c-11.257-3.886-17.98-16.583-19.771-20.379a8.73 8.73 0 00-7.862-4.988h-.004a8.732 8.732 0 00-7.866 4.986c-1.792 3.798-8.512 16.494-19.774 20.381a8.694 8.694 0 00.002 16.429c11.26 3.887 17.98 16.583 19.774 20.385a8.732 8.732 0 007.864 4.982h.004a8.731 8.731 0 007.861-4.985c1.792-3.799 8.515-16.497 19.772-20.383a8.693 8.693 0 005.853-8.215 8.694 8.694 0 00-5.853-8.213zm-27.637 20.574c-2.907-4.157-6.77-8.652-11.671-12.359 4.901-3.706 8.764-8.201 11.671-12.358 2.908 4.157 6.77 8.652 11.672 12.358-4.902 3.707-8.764 8.202-11.672 12.359z"></path>
    <path d="M453.45 131.416a553.573 553.573 0 00-20.778-5.389c6.239-6.473 13.988-12.31 23.315-15.529a9.748 9.748 0 006.561-9.214 9.747 9.747 0 00-6.561-9.213c-23.126-7.982-36.569-32.053-41.274-42.029-1.626-3.451-5.006-5.595-8.823-5.596h-.003c-3.815 0-7.196 2.143-8.824 5.593v.002c-4.705 9.977-18.146 34.047-41.275 42.03a9.747 9.747 0 00-6.561 9.213 9.748 9.748 0 006.561 9.214 50.326 50.326 0 015.301 2.192c-82.684-11.387-166.101-9.317-248.514 6.239-19.417 3.665-37.593 7.866-54.024 12.486C24.077 141.109 0 173.003 0 208.977v128.04c0 12.317 10.02 22.337 22.337 22.337h45.908c4.095 0 7.933-1.113 11.236-3.044a23.064 23.064 0 0015.465 9.967 7.507 7.507 0 002.452-14.812 8.13 8.13 0 01-6.815-8.057v-78.731c0-17.881 14.547-32.428 32.428-32.428s32.428 14.547 32.428 32.428v78.731c0 4.504-3.664 8.168-8.168 8.168h-16.502a7.507 7.507 0 000 15.014h16.502c4.051 0 7.862-1.047 11.179-2.882 4.326 8.107 12.867 13.638 22.679 13.638h56.291c7.135 0 13.597-2.925 18.257-7.637 4.66 4.712 11.122 7.637 18.257 7.637h56.291c9.927 0 18.551-5.663 22.827-13.926a23.026 23.026 0 0011.678 3.169h48.521c8.013 0 15.089-4.088 19.254-10.287a22.19 22.19 0 0011.25 3.052h45.908c12.317 0 22.337-10.02 22.337-22.337v-128.04c0-35.974-24.077-67.868-58.55-77.561zm-47.563-65.933c6.505 11.203 17.699 26.45 34.209 35.802-16.508 9.351-27.703 24.599-34.209 35.802-6.504-11.203-17.695-26.449-34.209-35.802 16.515-9.353 27.705-24.599 34.209-35.802zM75.569 337.017c0 4.038-3.285 7.323-7.324 7.323H22.337c-4.038 0-7.324-3.285-7.324-7.323v-74.491c0-.485.012-.967.033-1.442.326-6.991 3.921-13.256 9.861-17.19a23.424 23.424 0 0112.925-3.877c2.731 0 5.473.476 8.088 1.443 18.255 6.75 28.228 17.282 29.648 31.308v64.249zm172.529 14.636c0 5.888-4.79 10.678-10.678 10.678h-56.291c-5.887 0-10.677-4.79-10.677-10.678v-91.339c0-21.407 17.416-38.823 38.823-38.823s38.823 17.416 38.823 38.823zm173.32-8.246c0 4.504-3.664 8.168-8.168 8.168h-48.521c-4.503 0-8.167-3.664-8.167-8.168v-78.731c0-17.881 14.546-32.428 32.427-32.428s32.428 14.547 32.428 32.428v78.731zm68.245.933h-45.908c-4.038 0-7.323-3.285-7.323-7.323v-64.249c1.42-14.025 11.393-24.558 29.648-31.308a23.454 23.454 0 0121.013 2.434c5.94 3.934 9.534 10.2 9.86 17.186.022.479.033 75.938.033 75.938 0 4.037-3.285 7.322-7.323 7.322zm7.323-111.835a38.27 38.27 0 00-1.602-1.128c-10.169-6.735-23.069-8.23-34.512-3.998-12.211 4.516-21.733 10.719-28.385 18.385-7.321-16.772-24.058-28.529-43.498-28.529-15.797 0-29.806 7.769-38.433 19.678-8.722-17.996-27.174-30.435-48.477-30.435-3.918 0-7.827.424-11.622 1.259a7.507 7.507 0 00-5.716 8.946 7.504 7.504 0 008.946 5.717 39.046 39.046 0 018.392-.908c21.407 0 38.823 17.416 38.823 38.823v91.339c0 5.888-4.791 10.678-10.678 10.678h-56.291c-5.887 0-10.678-4.79-10.678-10.678v-91.339c0-7.567 2.176-14.898 6.293-21.198a7.507 7.507 0 00-2.18-10.39 7.505 7.505 0 00-10.39 2.179 54.165 54.165 0 00-1.316 2.135c-9.373-15.879-26.652-26.561-46.388-26.561-21.092 0-39.38 12.199-48.206 29.906-8.656-11.614-22.493-19.15-38.058-19.15-19.439 0-36.176 11.756-43.497 28.528-6.652-7.665-16.174-13.869-28.385-18.385-11.441-4.231-24.342-2.737-34.511 3.998-.548.363-1.079.743-1.604 1.129v-23.529c0-29.276 19.574-55.227 47.601-63.108 16.01-4.503 33.756-8.603 52.745-12.187 89.061-16.811 179.319-17.559 268.487-2.283 6.551 8.062 10.924 16.269 13.216 21.132 1.628 3.45 5.009 5.592 8.824 5.592h.003c3.816 0 7.196-2.145 8.822-5.594a108.949 108.949 0 017.62-13.5c9.459 2.155 18.512 4.438 27.055 6.84 28.027 7.88 47.6 33.831 47.6 63.108z"></path>
  </symbol>
  <symbol xmlns="http://www.w3.org/2000/svg" viewBox="0 0 24 24" id="denture">
    <path d="M23.5 6.25a.5.5 0 01-.5-.5v-.798c0-.654-.422-1.24-1.026-1.425-6.618-2.026-13.33-2.026-19.947 0C1.422 3.712 1 4.298 1 4.952v.798a.5.5 0 01-1 0v-.798c0-1.089.713-2.068 1.733-2.381 6.813-2.085 13.721-2.085 20.533 0C23.287 2.883 24 3.862 24 4.952v.798a.5.5 0 01-.5.5z"></path>
    <path d="M14.5 11h-5a.5.5 0 01-.5-.5V8c0-1.654 1.346-3 3-3s3 1.346 3 3v2.5a.5.5 0 01-.5.5zM10 10h4V8c0-1.103-.897-2-2-2s-2 .897-2 2z"></path>
    <path d="M19.5 11h-5a.5.5 0 01-.5-.5V8c0-1.654 1.346-3 3-3s3 1.346 3 3v2.5a.5.5 0 01-.5.5zM15 10h4V8c0-1.103-.897-2-2-2s-2 .897-2 2z"></path>
    <path d="M22.5 11h-3a.5.5 0 01-.5-.5V8.142c0-1.205.646-2.311 1.645-2.816a3.01 3.01 0 013.157.275A.5.5 0 0124 6v3.5c0 .827-.673 1.5-1.5 1.5zM20 10h2.5a.5.5 0 00.5-.5V6.269a2.002 2.002 0 00-1.904-.05C20.43 6.555 20 7.311 20 8.142zM9.5 11h-5a.5.5 0 01-.5-.5V8c0-1.654 1.346-3 3-3s3 1.346 3 3v2.5a.5.5 0 01-.5.5zM5 10h4V8c0-1.103-.897-2-2-2s-2 .897-2 2z"></path>
    <path d="M4.5 11h-3C.673 11 0 10.327 0 9.5V6a.5.5 0 01.198-.399c1.15-.868 2.905-.746 3.925.275A2.98 2.98 0 015 8v2.5a.5.5 0 01-.5.5zM1 6.268V9.5a.5.5 0 00.5.5H4V8c0-.537-.207-1.04-.583-1.417C2.794 5.961 1.76 5.83 1 6.268zm11 16.725c-3.43 0-6.86-.521-10.267-1.564C.713 21.117 0 20.138 0 19.048v-.798a.5.5 0 011 0v.798c0 .654.422 1.24 1.026 1.425 6.617 2.025 13.329 2.024 19.947 0 .605-.185 1.027-.771 1.027-1.425v-.798a.5.5 0 011 0v.798c0 1.089-.713 2.068-1.733 2.381C18.86 22.472 15.43 22.993 12 22.993z"></path>
    <path d="M12 19c-1.654 0-3-1.346-3-3v-2.5a.5.5 0 01.5-.5h5a.5.5 0 01.5.5V16c0 1.654-1.346 3-3 3zm-2-5v2c0 1.103.897 2 2 2s2-.897 2-2v-2z"></path>
    <path d="M17 19c-1.654 0-3-1.346-3-3v-2.5a.5.5 0 01.5-.5h5a.5.5 0 01.5.5V16c0 1.654-1.346 3-3 3zm-2-5v2c0 1.103.897 2 2 2s2-.897 2-2v-2z"></path>
    <path d="M22.002 18.997c-.464 0-.931-.106-1.358-.323-.998-.506-1.644-1.611-1.644-2.816V13.5a.5.5 0 01.5-.5h3c.827 0 1.5.673 1.5 1.5V18a.5.5 0 01-.198.399 2.987 2.987 0 01-1.8.598zM23.5 18h.01zM20 14v1.858c0 .832.43 1.587 1.096 1.923.715.362 1.43.219 1.904-.05V14.5a.5.5 0 00-.5-.5zM7 19c-1.654 0-3-1.346-3-3v-2.5a.5.5 0 01.5-.5h5a.5.5 0 01.5.5V16c0 1.654-1.346 3-3 3zm-2-5v2c0 1.103.897 2 2 2s2-.897 2-2v-2z"></path>
    <path d="M2 19a3.003 3.003 0 01-1.802-.601A.5.5 0 010 18v-3.5c0-.827.673-1.5 1.5-1.5h3a.5.5 0 01.5.5V16c0 .804-.311 1.559-.876 2.124S2.804 19 2 19zm-1-1.268c.759.439 1.793.307 2.417-.316C3.793 17.04 4 16.537 4 16v-2H1.5a.5.5 0 00-.5.5z"></path>
  </symbol>
  <symbol xmlns="http://www.w3.org/2000/svg" viewBox="0 0 24 24" id="facebook-fill">
    <path fill="none" d="M0 0h24v24H0z"></path>
    <path d="M14 13.5h2.5l1-4H14v-2c0-1.03 0-2 2-2h1.5V2.14c-.326-.043-1.557-.14-2.857-.14C11.928 2 10 3.657 10 6.7v2.8H7v4h3V22h4v-8.5z"></path>
  </symbol>
  <symbol xmlns="http://www.w3.org/2000/svg" viewBox="0 0 512 512" id="halitosis">
    <path d="M256 0C114.841 0 0 114.392 0 255c0 24.813 20.187 45 45 45h422c24.813 0 45-20.187 45-45C512 114.392 397.159 0 256 0zm180.686 120H376V64.424A227.432 227.432 0 01436.686 120zM241 120h-75V48.632c23.242-10.086 48.503-16.387 75-18.124zm30-89.492c26.497 1.737 51.758 8.039 75 18.124V120h-75zM136 64.424V120H75.314A227.432 227.432 0 01136 64.424zM134.02 270c22-36.141 69.005-60 121.98-60 52.976 0 99.98 23.859 121.981 60zM467 270h-55.354C388.65 216.501 326.443 180 256 180s-132.649 36.501-155.645 90H45c-8.271 0-15-6.729-15-15 0-37.901 9.476-73.635 26.171-105H455.83C472.524 181.365 482 217.099 482 255c0 8.271-6.729 15-15 15zm-271 77c0 5.05-2.346 7.429-9.603 13.477C178.274 367.245 166 377.474 166 397s12.274 29.755 20.397 36.523C193.654 439.571 196 441.95 196 447s-2.346 7.429-9.603 13.477C178.274 467.245 166 477.474 166 497v15h30v-15c0-5.05 2.346-7.429 9.603-13.477C213.726 476.755 226 466.526 226 447s-12.274-29.755-20.397-36.523C198.346 404.429 196 402.05 196 397s2.346-7.429 9.603-13.477C213.726 376.755 226 366.526 226 347v-15h-30zm-90 0c0 5.05-2.346 7.429-9.603 13.477C88.274 367.245 76 377.474 76 397s12.274 29.755 20.397 36.523C103.654 439.571 106 441.95 106 447s-2.346 7.429-9.603 13.477C88.274 467.245 76 477.474 76 497v15h30v-15c0-5.05 2.346-7.429 9.603-13.477C123.726 476.755 136 466.526 136 447s-12.274-29.755-20.397-36.523C108.346 404.429 106 402.05 106 397s2.346-7.429 9.603-13.477C123.726 376.755 136 366.526 136 347v-15h-30zm219.603 86.523C333.726 426.755 346 416.526 346 397s-12.274-29.755-20.397-36.523C318.346 354.429 316 352.05 316 347v-15h-30v15c0 19.526 12.274 29.755 20.397 36.523C313.654 389.571 316 391.95 316 397s-2.346 7.429-9.603 13.477C298.274 417.245 286 427.474 286 447s12.274 29.755 20.397 36.523C313.654 489.571 316 491.95 316 497v15h30v-15c0-19.526-12.274-29.755-20.397-36.523C318.346 454.429 316 452.05 316 447s2.346-7.429 9.603-13.477zm90 0C423.726 426.755 436 416.526 436 397s-12.274-29.755-20.397-36.523C408.346 354.429 406 352.05 406 347v-15h-30v15c0 19.526 12.274 29.755 20.397 36.523C403.654 389.571 406 391.95 406 397s-2.346 7.429-9.603 13.477C388.274 417.245 376 427.474 376 447s12.274 29.755 20.397 36.523C403.654 489.571 406 491.95 406 497v15h30v-15c0-19.526-12.274-29.755-20.397-36.523C408.346 454.429 406 452.05 406 447s2.346-7.429 9.603-13.477z"></path>
  </symbol>
  <symbol xmlns="http://www.w3.org/2000/svg" viewBox="0 0 24 24" id="instagram-line">
    <path fill="none" d="M0 0h24v24H0z"></path>
    <path d="M12 9a3 3 0 100 6 3 3 0 000-6zm0-2a5 5 0 110 10 5 5 0 010-10zm6.5-.25a1.25 1.25 0 01-2.5 0 1.25 1.25 0 012.5 0zM12 4c-2.474 0-2.878.007-4.029.058-.784.037-1.31.142-1.798.332a2.886 2.886 0 00-1.08.703 2.89 2.89 0 00-.704 1.08c-.19.49-.295 1.015-.331 1.798C4.006 9.075 4 9.461 4 12c0 2.474.007 2.878.058 4.029.037.783.142 1.31.331 1.797.17.435.37.748.702 1.08.337.336.65.537 1.08.703.494.191 1.02.297 1.8.333C9.075 19.994 9.461 20 12 20c2.474 0 2.878-.007 4.029-.058.782-.037 1.309-.142 1.797-.331a2.92 2.92 0 001.08-.702c.337-.337.538-.65.704-1.08.19-.493.296-1.02.332-1.8.052-1.104.058-1.49.058-4.029 0-2.474-.007-2.878-.058-4.029-.037-.782-.142-1.31-.332-1.798a2.911 2.911 0 00-.703-1.08 2.884 2.884 0 00-1.08-.704c-.49-.19-1.016-.295-1.798-.331C14.925 4.006 14.539 4 12 4zm0-2c2.717 0 3.056.01 4.122.06 1.065.05 1.79.217 2.428.465.66.254 1.216.598 1.772 1.153a4.908 4.908 0 011.153 1.772c.247.637.415 1.363.465 2.428.047 1.066.06 1.405.06 4.122 0 2.717-.01 3.056-.06 4.122-.05 1.065-.218 1.79-.465 2.428a4.883 4.883 0 01-1.153 1.772 4.915 4.915 0 01-1.772 1.153c-.637.247-1.363.415-2.428.465-1.066.047-1.405.06-4.122.06-2.717 0-3.056-.01-4.122-.06-1.065-.05-1.79-.218-2.428-.465a4.89 4.89 0 01-1.772-1.153 4.904 4.904 0 01-1.153-1.772c-.248-.637-.415-1.363-.465-2.428C2.013 15.056 2 14.717 2 12c0-2.717.01-3.056.06-4.122.05-1.066.217-1.79.465-2.428a4.88 4.88 0 011.153-1.772A4.897 4.897 0 015.45 2.525c.638-.248 1.362-.415 2.428-.465C8.944 2.013 9.283 2 12 2z"></path>
  </symbol>
  <symbol xmlns="http://www.w3.org/2000/svg" viewBox="0 0 24 24" id="phone-fill">
    <path fill="none" d="M0 0h24v24H0z"></path>
    <path d="M21 16.42v3.536a1 1 0 01-.93.998c-.437.03-.794.046-1.07.046-8.837 0-16-7.163-16-16 0-.276.015-.633.046-1.07A1 1 0 014.044 3H7.58a.5.5 0 01.498.45c.023.23.044.413.064.552A13.901 13.901 0 009.35 8.003c.095.2.033.439-.147.567l-2.158 1.542a13.047 13.047 0 006.844 6.844l1.54-2.154a.462.462 0 01.573-.149 13.901 13.901 0 004 1.205c.139.02.322.042.55.064a.5.5 0 01.449.498z"></path>
  </symbol>
  <symbol xmlns="http://www.w3.org/2000/svg" viewBox="0 0 512.001 512.001" id="tooth">
    <path d="M385.968 46.993c-5.52 0-10 4.48-10 10s4.48 10 10 10 10-4.48 10-10-4.478-10-10-10z"></path>
    <path d="M395.123 7.999c-62.714-20.11-115.125 2.394-139.154 16.261-24.027-13.87-76.43-36.375-139.159-16.261C33.738 34.646-5.209 155.948 61.398 253.824c31.557 46.352 35.771 82.105 40.232 119.958 3.266 27.709 6.643 56.362 20.749 89.86 9.486 22.52 22.895 48.281 42.734 48.279.179 0 .362-.002.542-.006 15.953-.377 28.809-16.199 41.681-51.304 6.557-17.895 10.758-39.011 14.821-59.43 7.313-36.754 14.876-74.759 33.883-74.892h.101c18.799 0 26.345 38.018 33.643 74.783 4.065 20.484 8.269 41.667 14.825 59.541 12.888 35.159 25.743 51.006 41.681 51.382.181.004.36.006.541.006 19.799 0 33.226-25.802 42.726-48.36 13.48-32.011 17.011-60.593 20.426-88.234 4.808-38.917 9.349-75.675 40.629-121.689 67.387-99.14 26.189-219.536-55.489-245.719zm38.947 234.475c-33.996 50.01-39.05 90.919-43.938 130.481-3.397 27.497-6.606 53.469-19.009 82.922C356.407 490.816 347.873 492 346.794 492h-.032c-.385-.009-9.586-.655-23.375-38.274-6.02-16.412-10.069-36.816-13.985-56.548-4.396-22.15-8.548-43.073-15.392-59.404-8.757-20.895-21.485-31.487-37.836-31.487l-.275.001c-16.419.115-29.195 10.789-37.97 31.727-6.841 16.322-10.992 37.181-15.385 59.263-3.915 19.672-7.962 40.015-13.984 56.45-13.764 37.538-22.987 38.184-23.373 38.193-.896.016-9.53-.804-24.372-36.041-13.007-30.889-16.073-56.899-19.318-84.438-4.547-38.579-9.249-78.471-43.561-128.87-60.045-88.231-23.851-193.445 44.985-215.526 59.86-19.195 109.263 5.74 127.724 17.353a9.996 9.996 0 0010.646.001c18.468-11.61 67.883-36.543 127.727-17.353 70.199 22.501 103.883 128.877 45.052 215.427z"></path>
    <path d="M437.074 103.527c-3.248-9.429-7.553-18.105-12.794-25.788-3.113-4.564-9.334-5.739-13.896-2.626-4.563 3.112-5.738 9.333-2.625 13.896 4.237 6.211 7.738 13.288 10.406 21.032 9.965 28.924 7.365 62.673-7.134 92.594-2.409 4.97-.332 10.951 4.638 13.36 4.971 2.409 10.952.332 13.36-4.638 16.788-34.643 19.721-73.946 8.045-107.83zm-217.446 33.27l-40.257-13.419-13.419-40.257a10.001 10.001 0 00-18.974 0l-13.419 40.257-40.257 13.419a10.001 10.001 0 000 18.974l40.257 13.419 13.419 40.257a10.001 10.001 0 0018.974 0l13.419-40.257 40.257-13.419a10.001 10.001 0 000-18.974zm-51.325 15a9.998 9.998 0 00-6.325 6.325l-5.513 16.54-5.513-16.54a9.998 9.998 0 00-6.325-6.325l-16.54-5.513 16.54-5.513a9.998 9.998 0 006.325-6.325l5.513-16.54 5.513 16.54a9.998 9.998 0 006.325 6.325l16.54 5.513-16.54 5.513z"></path>
  </symbol>
  <symbol xmlns="http://www.w3.org/2000/svg" viewBox="0 0 24 24" id="twitter-fill">
    <path fill="none" d="M0 0h24v24H0z"></path>
    <path d="M22.162 5.656a8.384 8.384 0 01-2.402.658A4.196 4.196 0 0021.6 4c-.82.488-1.719.83-2.656 1.015a4.182 4.182 0 00-7.126 3.814 11.874 11.874 0 01-8.62-4.37 4.168 4.168 0 00-.566 2.103c0 1.45.738 2.731 1.86 3.481a4.168 4.168 0 01-1.894-.523v.052a4.185 4.185 0 003.355 4.101 4.21 4.21 0 01-1.89.072A4.185 4.185 0 007.97 16.65a8.394 8.394 0 01-6.191 1.732 11.83 11.83 0 006.41 1.88c7.693 0 11.9-6.373 11.9-11.9 0-.18-.005-.362-.013-.54a8.496 8.496 0 002.087-2.165z"></path>
  </symbol>
  <symbol xmlns="http://www.w3.org/2000/svg" viewBox="0 0 24 24" id="arrow-right-circle-fill">
    <path fill="none" d="M0 0h24v24H0z"></path>
    <path d="M12 2c5.52 0 10 4.48 10 10s-4.48 10-10 10S2 17.52 2 12 6.48 2 12 2zm0 9H8v2h4v3l4-4-4-4v3z"></path>
  </symbol>
  <symbol xmlns="http://www.w3.org/2000/svg" viewBox="0 0 24 24" id="arrow-right-fill">
    <path fill="none" d="M0 0h24v24H0z"></path>
    <path d="M12 13H4v-2h8V4l8 8-8 8z"></path>
  </symbol>
  <symbol xmlns="http://www.w3.org/2000/svg" viewBox="0 0 128 128" id="brackets">
    <path d="M110.8 54.5c0-8.7-6.4-15.8-14.4-15.8-3.1 0-6.1 1.1-8.5 3.1-.8.7-2 .7-2.8 0-2.4-2-5.4-3.1-8.5-3.1-5.4.2-10.3 3.4-12.6 8.3-2.3-4.9-7.2-8.1-12.6-8.2-3.1 0-6.1 1.1-8.5 3.1-.8.7-2 .7-2.8 0-2.4-2-5.4-3.1-8.5-3.1-7.9 0-14.4 7.1-14.4 15.8 0 4.7 1.8 8.8 4.9 11.8 1.6 1.5 2.6 3.7 2.5 5.9-.2 6.6 2.4 12.2 6.7 16.1 1 .9 2.5 1.1 3.7.5 1.3-.6 2.1-1.9 2.1-3.4v-.7c0-10.3 3-15.6 4.3-15.6s4.3 5.3 4.3 15.6v.7c0 1.4.8 2.7 2.1 3.3s2.7.3 3.7-.5c4.3-3.9 6.9-9.6 6.7-16.1 0-2.2.9-4.4 2.5-5.9C62 65 63 63.6 63.8 62c.8 1.6 1.8 3.1 3.1 4.3 1.9 1.8 2.5 3.9 2.5 6.5-.1 5.9 2.3 11.6 6.7 15.6 1 .9 2.5 1.1 3.7.5 1.3-.6 2.1-1.9 2.1-3.4v-.7c0-10.3 3-15.6 4.3-15.6s4.3 5.3 4.3 15.6c0 .2-.4 2.9 2.1 4.1 1.3.6 2.7.3 3.7-.5 4.4-4 6.8-9.6 6.7-15.6 0-2.6.6-4.6 2.5-6.5 3.5-3.1 5.3-7.3 5.3-11.8zM76.6 42.3c2.3 0 4.5.8 6.3 2.3 2.1 1.7 5.1 1.7 7.2 0 1.8-1.5 4-2.3 6.3-2.3 5.8 0 10.5 5.1 10.8 11.5H92.9v-.5c0-2.3-1.8-4.1-4.1-4.1h-4.5c-2.3 0-4.1 1.8-4.1 4.1v.5H65.8c.3-6.5 5.1-11.5 10.8-11.5zm7 10.9c0-.3.3-.6.6-.6h4.5c.3 0 .6.3.6.6v4.5c0 .3-.3.6-.6.6h-4.5c-.3 0-.6-.3-.6-.6zm-52-10.9c2.3 0 4.5.8 6.3 2.3 2.1 1.7 5.1 1.7 7.2 0 1.8-1.5 4-2.3 6.3-2.3 5.8 0 10.5 5.1 10.8 11.5H47.9v-.5c0-2.3-1.8-4.1-4.1-4.1h-4.5c-2.3 0-4.1 1.8-4.1 4.1v.5H20.8c.3-6.5 5.1-11.5 10.8-11.5zm12.8 15.5c0 .3-.3.6-.6.6h-4.5c-.3 0-.6-.3-.6-.6v-4.5c0-.3.3-.6.6-.6h4.5c.3 0 .6.3.6.6zm14 6.1c-2.3 2.2-3.6 5.3-3.6 8.5 0 5.3-1.6 9.8-5.5 13.4 0 0-.1-.6-.1-.9 0-9.5-2.7-19.1-7.8-19.1s-7.8 9.6-7.8 19.1v.9c-3.6-3.4-5.7-8.2-5.5-13.4 0-3.2-1.3-6.3-3.6-8.5-1.8-1.8-3.1-4.1-3.5-6.6h14.1v.5c0 2.3 1.8 4.1 4.1 4.1h4.5c2.3 0 4.1-1.8 4.1-4.1v-.5H62c-.5 2.5-1.7 4.8-3.6 6.6zm41.4 8.9c.1 4.9-1.9 9.6-5.5 12.9 0 0-.1-.6-.1-.9 0-9.5-2.7-19.1-7.8-19.1s-7.8 9.6-7.8 19.1v.9c-3.6-3.3-5.6-8-5.5-12.9 0-3.5-1-6.5-3.6-9-1.8-1.8-3.1-4.1-3.5-6.6h14.1v.5c0 2.3 1.8 4.1 4.1 4.1h4.5c2.3 0 4.1-1.8 4.1-4.1v-.5H107c-.5 2.5-1.7 4.8-3.5 6.6-2.7 2.5-3.7 5.5-3.7 9z"></path>
  </symbol>
  <symbol xmlns="http://www.w3.org/2000/svg" viewBox="0 -64 480 480" id="cavity">
    <path d="M284.71 50.45l-9.42-12.927c-21.458 13.961-49.13 13.961-70.587 0l-9.422 12.926A76.191 76.191 0 00240 63.992a76.167 76.167 0 0044.71-13.543zm0 0"></path>
    <path d="M472 207.992h-48.32a39.998 39.998 0 01-30.77-14.398l-4.367-5.336a55.913 55.913 0 00-43.102-20.266H344A164.327 164.327 0 01360.383 138a88.155 88.155 0 0014.93-61.277A87.932 87.932 0 00251.09 8.168a25.768 25.768 0 01-22.153 0c-36-16.7-78.726-7.219-104.28 23.145-25.555 30.359-27.602 74.078-5 106.699A164.65 164.65 0 01136 167.992h-1.441a55.959 55.959 0 00-43.153 20.297l-4.27 5.227a39.988 39.988 0 01-30.816 14.476H8a8 8 0 00-8 8v128a8 8 0 008 8h464a8 8 0 008-8v-128a8 8 0 00-8-8zM359.426 78.7a72.232 72.232 0 01-12.227 50.184c-2.558 3.687-4.933 7.527-7.199 11.422-21.91-6.672-28-20.614-28-28.313 0-4.496 1.734-6.398 5.656-10.344A28.51 28.51 0 00328 79.992a30.289 30.289 0 00-8.594-20.566A26.082 26.082 0 01312 39.992a34.125 34.125 0 016.168-17.36A72.096 72.096 0 01359.426 78.7zm-238.84 0a71.938 71.938 0 0136.61-53.742 71.938 71.938 0 0164.988-2.258 42.12 42.12 0 0035.664 0 71.836 71.836 0 0137.12-6.336 68.69 68.69 0 017.665 1.2A46.525 46.525 0 00296 39.992a41.681 41.681 0 0011.008 29.554c3.465 4.23 4.992 6.277 4.992 10.445 0 4.496-1.734 6.403-5.656 10.344A28.523 28.523 0 00296 111.992c0 15.633 11.414 33.817 36.426 42.586a184.13 184.13 0 00-14.824 46.856l-11.204 63.96a7.992 7.992 0 01-7.878 6.598h-12.48a7.993 7.993 0 01-7.935-6.965l-8.8-68.12c-1.575-11.954-11.754-20.891-23.809-20.915h-10.992c-12.05.031-22.223 8.969-23.8 20.914l-8.802 68.114a7.993 7.993 0 01-7.925 6.972h-12.52a8 8 0 01-7.883-6.597l-11.176-63.961a183.135 183.135 0 00-29.597-72.551 72.124 72.124 0 01-12.215-50.184zM464 335.992H16v-112h40.32A56.005 56.005 0 0099.473 203.7l4.28-5.226a40.006 40.006 0 0130.806-14.48h7.203a168.783 168.783 0 014.879 20.187l11.152 64c2.008 11.484 12 19.855 23.664 19.812h12.488c12.047-.031 22.22-8.965 23.797-20.91l8.801-68.113a8.005 8.005 0 017.96-6.977h10.993a8.007 8.007 0 017.938 6.969l8.796 68.121c1.586 11.957 11.774 20.895 23.832 20.91h12.481c11.664.028 21.648-8.355 23.64-19.847l11.153-64c1.21-6.81 2.84-13.54 4.879-20.153h7.2a39.962 39.962 0 0130.76 14.403l4.368 5.335a56 56 0 0043.137 20.262H464zm0 0"></path>
    <path d="M392 71.992h32v16h-32zm-19.582-47.156l32-16 7.156 14.312-32 16zm8 110.309l7.156-14.31 32 16-7.156 14.31zm0 0"></path>
  </symbol>
  <symbol xmlns="http://www.w3.org/2000/svg" viewBox="0 0 289.281 289.281" id="crown">
    <path d="M101.96 56.908a4.744 4.744 0 01-4.742-4.742 4.744 4.744 0 014.742-4.742c13.71 0 32.826-19.311 39.039-26.751a4.743 4.743 0 017.284 6.075c-2.571 3.086-25.727 30.16-46.323 30.16z"></path>
    <path d="M225.26 147.012H64.021a4.747 4.747 0 01-4.628-3.704c-.977-4.358-3.903-8.911-6.634-12.795a118.225 118.225 0 01-2.703-4.003c-12.581-19.372-19.23-42.558-19.23-67.037v-12.05C30.825 9.911 71.154 0 92.475 0c27.017 0 45.071 11.794 52.165 17.442C151.735 11.794 169.789 0 196.806 0c21.321 0 61.65 9.911 61.65 47.423v12.05c0 24.48-6.649 47.665-19.23 67.042a123.312 123.312 0 01-2.703 3.998c-2.732 3.879-5.658 8.437-6.634 12.795a4.75 4.75 0 01-4.629 3.704zm-157.72-9.485h154.206c1.698-4.567 4.444-8.806 7.028-12.472a118.389 118.389 0 002.499-3.694c11.576-17.845 17.698-39.243 17.698-61.887v-12.05c0-37.403-50.041-37.934-52.17-37.939-30.669 0-48.637 17.414-48.817 17.589-1.854 1.835-4.851 1.835-6.696-.009-.171-.166-18.139-17.58-48.813-17.58-2.124.004-52.165.536-52.165 37.938v12.05c0 22.645 6.122 44.042 17.698 61.878a123.025 123.025 0 002.504 3.704c2.584 3.67 5.326 7.905 7.028 12.472z"></path>
    <path d="M211.033 165.981H78.248a4.744 4.744 0 01-4.742-4.742V142.27a4.744 4.744 0 014.742-4.742h132.785a4.744 4.744 0 014.742 4.742v18.969a4.744 4.744 0 01-4.742 4.742zM82.99 156.496h123.3v-9.485H82.99z"></path>
    <path d="M158.867 289.281h-28.454a4.747 4.747 0 01-4.244-2.623l-14.227-28.454a4.756 4.756 0 01-.498-2.12v-94.846a4.744 4.744 0 014.742-4.742h56.908a4.744 4.744 0 014.742 4.742v94.846a4.76 4.76 0 01-.498 2.12l-14.227 28.454a4.745 4.745 0 01-4.244 2.623zm-25.523-9.485h22.592l12.415-24.831V165.98h-47.423v88.985z"></path>
    <path d="M182.579 189.693h-75.877a4.744 4.744 0 01-4.742-4.742 4.744 4.744 0 014.742-4.742h75.877c2.618 0 4.742 2.125 4.742 4.742s-2.124 4.742-4.742 4.742zm0 18.969h-75.877c-2.618 0-4.742-2.125-4.742-4.742s2.125-4.742 4.742-4.742h75.877c2.618 0 4.742 2.125 4.742 4.742s-2.124 4.742-4.742 4.742zm0 18.969h-75.877c-2.618 0-4.742-2.125-4.742-4.742s2.125-4.742 4.742-4.742h75.877c2.618 0 4.742 2.125 4.742 4.742s-2.124 4.742-4.742 4.742zm0 18.969h-75.877c-2.618 0-4.742-2.125-4.742-4.742s2.125-4.742 4.742-4.742h75.877c2.618 0 4.742 2.125 4.742 4.742s-2.124 4.742-4.742 4.742zm0 18.97h-75.877c-2.618 0-4.742-2.125-4.742-4.742s2.125-4.742 4.742-4.742h75.877c2.618 0 4.742 2.125 4.742 4.742s-2.124 4.742-4.742 4.742z"></path>
  </symbol>
  <symbol xmlns="http://www.w3.org/2000/svg" viewBox="0 0 480 480" id="dental-care">
    <path d="M181.024 220.797l-24.936 9.984c-8.521 3.384-18.171-.781-21.555-9.301a16.6 16.6 0 01.547-13.483l5.496-10.992a16 16 0 00-3-18.472l-38.264-38.264 10.344-10.344a8 8 0 000-11.312L83.312 92.27l2.344-2.344a8 8 0 00.16-11.152l-72-76.264A7.999 7.999 0 000 7.997v104a7.998 7.998 0 002.84 6.112l24 20.288a8 8 0 0010.816-.456L40 135.573l26.344 26.344a8 8 0 0011.312 0L88 151.573l38.264 38.264-5.464 10.96c-8.042 16.094-1.514 35.66 14.58 43.701a32.578 32.578 0 0026.676 1.099l24.952-9.976-5.984-14.824zM34.344 118.629l-2.8 2.8L16 108.285v-80.16l52.848 56-2.504 2.504-32 32zM72 144.949l-20.688-20.688L72 103.573l20.688 20.712L72 144.949zm403.064 87.656a8 8 0 00-8.72 1.736l-112 112a8 8 0 000 11.312l6.344 6.344-31.392 31.392A77.28 77.28 0 00288 383.997c-35.288 0-64 21.528-64 48s28.712 48 64 48 64-21.528 64-48a39.722 39.722 0 00-10.464-26.224L372 375.309l6.344 6.344a8 8 0 0011.312 0l88-88a8 8 0 002.344-5.656v-48a8 8 0 00-4.936-7.392zM288 463.997c-26.016 0-48-14.656-48-32s21.984-32 48-32 48 14.656 48 32-21.984 32-48 32zm176-179.312l-80 80-12.688-12.688L464 259.309v25.376z"></path>
    <path d="M275.832 270.349c-3.304-19.789-22.025-33.154-41.815-29.849a36.327 36.327 0 00-29.849 29.849L180 415.357c-1.811 10.847-12.072 18.172-22.919 16.362a19.911 19.911 0 01-16.449-16.938l-20.704-151.864a8.004 8.004 0 00-1.144-3.2l-4.448-7.12a225.333 225.333 0 01-28.88-70.4l-15.624 3.488a241.394 241.394 0 0030.968 75.432l3.536 5.664 20.48 150.16c2.675 19.648 20.771 33.408 40.419 30.733 15.594-2.123 27.988-14.153 30.573-29.677l24.168-145.008c1.605-9.808 10.086-17.005 20.024-16.992 9.951-.028 18.449 7.172 20.056 16.992l16.056 96.328 15.776-2.64-16.056-96.328zm39.238-238.35a100.93 100.93 0 00-39.75 8.158 90.094 90.094 0 01-70.64 0c-39.638-16.988-85.691-6.914-114.616 25.072l11.872 10.768a85.088 85.088 0 0162.992-28 84.47 84.47 0 0133.448 6.864 106.073 106.073 0 0083.248 0c43.114-18.473 93.039 1.502 111.512 44.616A84.925 84.925 0 01400 132.925a225.598 225.598 0 01-34.336 119.712l-4.448 7.12a8.004 8.004 0 00-1.144 3.2l-6.544 48 15.848 2.16 6.32-46.296 3.536-5.664A241.596 241.596 0 00416 132.925c-.001-55.741-45.189-100.927-100.93-100.926z"></path>
  </symbol>
  <symbol xmlns="http://www.w3.org/2000/svg" viewBox="0 0 504 504.044" id="dental-veneer">
    <path d="M251.824 0C164.734 0 .024 12.281.024 58.754v67.148a16.726 16.726 0 008.39 14.453v10.727c0 13.906 11.274 25.18 25.184 25.18h9.937a25.183 25.183 0 0023.633 16.789h25.184a24.914 24.914 0 0012.343-3.36 25.132 25.132 0 0021.227 11.75h33.574a24.884 24.884 0 0012.348-3.355 25.136 25.136 0 0021.226 11.75h41.97a25.018 25.018 0 0016.784-6.547 25.027 25.027 0 007.27 4.649c-54.985 21.43-122.637 66.847-166.653 101.644C35.527 354.43 3.02 400.68.863 439.891c-.05.347-.078.699-.086 1.05v.57a63.787 63.787 0 0010.996 39.61v.11a10.67 10.67 0 001.286 1.617c.074.086.156.144.234.23l.2.184a64.657 64.657 0 0035.503 19.195 84.18 84.18 0 0016.68 1.586c36.62 0 82.969-20.883 132.734-60.172 57.426-45.285 122.945-109.746 149.942-158.492h1.015c16.031-.02 29.02-13.012 29.04-29.043v-54.961a25.107 25.107 0 0020.546-11.684 24.94 24.94 0 0012.348 3.36h25.18a25.188 25.188 0 0023.636-16.79h9.938c13.906 0 25.18-11.273 25.18-25.179v-10.727a16.738 16.738 0 008.394-14.453V58.754C503.629 12.28 338.914 0 251.824 0zm0 16.785c152.067 0 235.016 27.7 235.016 41.969v49.75a21.62 21.62 0 00-14.914-5.61 24.962 24.962 0 00-14.965 5.036 32.738 32.738 0 00-29.805-16.567 40.788 40.788 0 00-30.09 13.344 35.919 35.919 0 00-32.433-17.078 45.943 45.943 0 00-32.324 13.43c-.836.836-1.457 1.82-2.215 2.718a39.45 39.45 0 00-36.301-19.843 50.4 50.4 0 00-35.68 14.75 51.347 51.347 0 00-6.32 7.77 50.364 50.364 0 00-41.934-22.52 39.45 39.45 0 00-36.234 19.707 45.586 45.586 0 00-34.64-15.946 35.92 35.92 0 00-32.368 17.055 40.792 40.792 0 00-30.09-13.355 32.737 32.737 0 00-29.836 16.57 24.973 24.973 0 00-14.968-5.035 21.627 21.627 0 00-14.914 5.574v-49.75c0-14.27 82.953-41.969 235.015-41.969zm67.149 118.348c-28.606 4.535-49.82 28.96-50.301 57.918h-.059a8.394 8.394 0 01-8.394-8.395v-50.36a33.439 33.439 0 0133.574-33.573 24.033 24.033 0 0118.164 7.015 24.033 24.033 0 017.016 18.164zm-21.32 150.246h2.386A1191.362 1191.362 0 01182.598 388.28C135.3 425.625 91.945 445.355 59.21 444.828c7.094-32.004 36.355-69.59 83.617-106.95a1197.776 1197.776 0 01125.785-89.491v7.949c.016 16.031 13.008 29.023 29.04 29.043zM25.202 151.082v-22.387c0-1.5.309-9.011 6.52-9.011 6.418 1.043 10.914 6.898 10.265 13.37v26.423h-8.39a8.394 8.394 0 01-8.395-8.395zm67.149 25.18H67.168a8.393 8.393 0 01-8.39-8.395v-41.965a16.691 16.691 0 014.847-12.87 16.691 16.691 0 0112.871-4.848c13.387.011 24.234 10.863 24.246 24.25v35.433a8.393 8.393 0 01-8.39 8.395zm67.144 8.394h-33.574a8.393 8.393 0 01-8.39-8.394v-50.36a20.48 20.48 0 015.972-15.48 20.48 20.48 0 0115.48-5.973c15.961.016 28.895 12.953 28.907 28.914v42.899a8.394 8.394 0 01-8.395 8.394zm75.543 8.395H193.07a8.393 8.393 0 01-8.39-8.395v-58.754a24.044 24.044 0 0125.18-25.18c18.542 0 33.574 15.032 33.574 33.575v50.36a8.394 8.394 0 01-8.395 8.394zm-132.2 129.71c57.263-45.273 120.708-83.597 165.774-100.503v6.8a1127.116 1127.116 0 00-136.226 95.684c-51.563 40.707-82.375 81.2-89.895 117.727a47.296 47.296 0 01-22.996-14.32c7.613-31.72 36.637-68.583 83.344-105.387zm85.196 107.95c-53.719 42.426-101.887 62.078-136.265 55.27a48.051 48.051 0 01-26.024-14.184 45.912 45.912 0 01-7.98-22.664 67.954 67.954 0 0030.492 11.75h.847c38.61 4.91 88.31-15.594 143.915-59.492 75.09-59.29 123.386-104.282 147.097-137.184-18.09 44.813-88.293 116.176-152.082 166.504zm173.578-174.375a12.191 12.191 0 01-4.199 9.184c.504-1.461 1.133-2.98 1.535-4.391a15.689 15.689 0 00-8.691-18.426 15.695 15.695 0 00-19.567 5.684 202.818 202.818 0 01-15.402 20.203H297.66c-6.765-.004-12.25-5.488-12.262-12.254v-62.027c-.05-23.454 18.68-42.637 42.13-43.145a5.18 5.18 0 001.097-.082 31.442 31.442 0 0123.781 9.145 31.465 31.465 0 019.207 23.757zm24.508-80.074a8.334 8.334 0 01-7.723 8.258v-.536c1.082-25.12-17.62-46.726-42.636-49.254v-1.359a28.858 28.858 0 0128.871-28.957 20.516 20.516 0 0115.5 5.988 20.516 20.516 0 015.988 15.5zm58.754-8.395a8.394 8.394 0 01-8.395 8.395H411.3a8.394 8.394 0 01-8.394-8.395v-35.433c.016-13.387 10.864-24.239 24.25-24.25a16.677 16.677 0 0117.719 17.718zm33.574-16.785a8.394 8.394 0 01-8.394 8.395h-8.395v-26.422c-.648-6.473 3.852-12.328 10.266-13.371 6.21 0 6.523 7.511 6.523 9.011zm0 0"></path>
  </symbol>
</svg>