<svg xmlns="http://www.w3.org/2000/svg" viewBox="0 0 687.52 592.11"><defs><style>.cls-1{fill:#e8e8e8;opacity:0.2;}</style></defs><g id="Capa_2" data-name="Capa 2"><g id="Capa_1-2" data-name="Capa 1"><path class="cls-1" d="M647.32,47.31A139.92,139.92,0,0,0,541.7,0c-31.94,0-66.38,19-91.55,32.89-9.17,5.06-21.7,12-25.4,12.43-3.69-.45-16.15-7.35-25.29-12.41C374.35,19,340,0,307.8,0A139.9,139.9,0,0,0,202.19,47.31C176.26,76.34,162,114.55,162,154.9c0,19.19,2.31,41.08,6.65,64.68-16.95-8.75-36.74-17.14-55.56-17.14a108.49,108.49,0,0,0-81.9,36.68C11.07,261.63,0,291.25,0,322.54c0,44.7,16.05,108.26,42.93,170,12,27.48,24.69,51.23,36.82,68.68,14.43,20.77,26.82,30.86,37.86,30.86,4.91,0,13.88-2.08,18.92-16,4.89-13.53,9.29-29.07,14-45.54C162.85,487,178.22,432.68,203,432.68h1.56c11,0,20.86,9.42,30.12,28.82,9.17,19.2,16.14,44.75,22.9,69.48,4.46,16.35,8.68,31.79,13.41,45.09C275.9,589.91,284.77,592,289.63,592c11,0,23.36-10.25,37.83-31.33C339.55,543,352.31,519,364.35,491.29c27-62.27,43.15-125.35,43.15-168.75a131.07,131.07,0,0,0-1.25-18.11c5.4-4.78,11.21-7.5,17.49-7.5h2c14.19,0,26.9,12.16,38.84,37.17,11.83,24.77,20.82,57.71,29.53,89.61,5.75,21.09,11.19,41,17.3,58.14,6.36,17.86,17.81,20.53,24.07,20.53,14.18,0,30.14-13.22,48.79-40.4,15.6-22.74,32.05-53.67,47.58-89.46,34.85-80.3,55.65-161.66,55.65-217.63C687.52,114.54,673.24,76.34,647.32,47.31ZM390.84,325c-.61,40.64-16.48,101.49-41.75,159.71-11.46,26.4-24,50-35.35,66.57-13.08,19.07-21.55,24.61-24.11,24.1-1.57-.31-1.77-1.42-3-4.86-4.54-12.71-8.67-27.86-13.05-43.9-6.94-25.41-14.11-51.69-23.93-72.25C237.36,428.56,222.6,416,204.53,416H203c-17.4,0-31.82,12.42-44.08,38-9.79,20.4-17.22,46.63-24.4,72-4.58,16.17-8.91,31.44-13.61,44.42-1,2.87-1.35,4.74-3.27,5-1.5.23-7.9-.27-24.2-23.71-11.35-16.33-23.86-39.71-35.22-65.83C32.56,427,16.64,364.43,16.64,322.54c0-50.86,36.07-103.47,96.43-103.47,15.69,0,36.31,7.15,55.15,19.12,1.41.9,3.12,2.12,4.95,3.48s3.63,2.75,5.47,4.17c1.51,1.15,3,2.29,4.36,3.32a187.21,187.21,0,0,0,17.13,11.6l.27.17a91.63,91.63,0,0,0,10.66,5.63,121,121,0,0,0,47.6,9.67c16.79,0,28.09-3,28.2-3s2.53-.66,2.45-1.32-2.51-.67-2.51-.67c-.26,0-25.85-1.25-49.14-7.42-10.51-2.78-22.93-8.36-22.93-10s13.5-9.47,16.75-11.27c17.93-9.89,42.47-23.43,63-23.43,48.74,0,81.63,34.3,92.5,74.29a111.57,111.57,0,0,1,3.93,29.18C390.87,323.34,390.85,324.15,390.84,325Zm221.35,39c-14.78,34-31,64.55-45.59,85.86-16.87,24.59-27.79,31.74-31.1,31.08-2-.4-2.28-1.84-3.86-6.27-5.84-16.39-11.18-35.93-16.82-56.62-9-32.77-18.2-66.66-30.86-93.18-15.87-33.22-34.9-49.37-58.2-49.37h-2a44.18,44.18,0,0,0-22.8,6.29,121.57,121.57,0,0,0-24.61-42.65,108.47,108.47,0,0,0-81.89-36.68c-24.77,0-51.48,14.73-71,25.5-7.1,3.92-16.82,9.28-19.69,9.63-1.71-.2-5.86-2.21-10.44-4.62-6.39-29.08-9.87-55.83-9.87-78.06C183.44,89.3,230,21.45,307.8,21.45c20.24,0,46.83,9.22,71.13,24.67,3.57,2.26,8.59,6.12,13.44,9.85,1.94,1.49,3.85,3,5.62,4.29a242.47,242.47,0,0,0,22.44,15.17,117.44,117.44,0,0,0,13.75,7.27,156.22,156.22,0,0,0,61.39,12.46c21.65,0,36.22-3.85,36.36-3.89s3.26-.86,3.16-1.71-3.24-.87-3.24-.87c-.33,0-33.33-1.6-63.37-9.56-13.55-3.58-29.57-10.79-29.57-12.93S456.32,54,460.51,51.67c23.12-12.75,54.77-30.22,81.19-30.22,77.85,0,124.37,67.85,124.37,133.45C666.07,207.28,645.42,287.4,612.19,364Z"/></g></g></svg>